<?xml version="1.0" encoding="UTF-8" standalone="no"?>
<!-- Generator: Gravit.io -->
<svg xmlns="http://www.w3.org/2000/svg" xmlns:xlink="http://www.w3.org/1999/xlink" style="isolation:isolate" viewBox="0 0 543.2 164.5" width="543.2pt" height="164.5pt"><defs><clipPath id="_clipPath_mn1Ug2LXmcYSVckEWvXgNUZm7D50oGNd"><rect width="543.2" height="164.5"/></clipPath></defs><g clip-path="url(#_clipPath_mn1Ug2LXmcYSVckEWvXgNUZm7D50oGNd)"><path d=" M 279.141 110.294 L 256.094 133.625 L 256.094 139.627 L 250.164 139.627 L 256.094 133.625 L 279.141 110.294 L 300.039 89.138 L 300.039 139.627 L 279.141 139.627 L 279.141 110.294 L 279.141 110.294 Z " fill="rgb(219,34,42)"/><path d=" M 269.141 100.171 L 246.094 123.502 L 246.094 2.373 L 225.195 2.373 L 225.195 129.504 L 240.164 129.504 L 246.094 123.502 L 269.141 100.171 L 290.039 79.015 L 290.039 41.52 L 269.141 41.52 L 269.141 100.171 L 269.141 100.171 Z  M 98.047 93.124 L 98.047 93.124 L 98.047 93.124 Q 98.047 106.174 89.941 115.269 L 89.941 115.269 L 89.941 115.269 Q 81.836 124.364 70.801 128.219 L 70.801 128.219 L 70.801 128.219 Q 59.766 132.075 47.461 132.075 L 47.461 132.075 L 47.461 132.075 Q 27.344 132.075 13.672 120.904 L 13.672 120.904 L 13.672 120.904 Q 0 109.733 0 90.159 L 0 90.159 L 23.633 90.159 L 23.633 90.159 Q 23.828 101.428 30.273 107.36 L 30.273 107.36 L 30.273 107.36 Q 36.719 113.291 47.852 113.291 L 47.852 113.291 L 47.852 113.291 Q 54.492 113.291 60.352 111.809 L 60.352 111.809 L 60.352 111.809 Q 66.211 110.326 70.898 106.075 L 70.898 106.075 L 70.898 106.075 Q 75.586 101.824 75.586 95.102 L 75.586 95.102 L 75.586 95.102 Q 75.586 87.984 70.215 83.337 L 70.215 83.337 L 70.215 83.337 Q 64.844 78.691 56.836 76.813 L 56.836 76.813 L 56.836 76.813 Q 48.828 74.934 39.355 72.265 L 39.355 72.265 L 39.355 72.265 Q 29.883 69.596 21.875 66.532 L 21.875 66.532 L 21.875 66.532 Q 13.867 63.467 8.496 56.151 L 8.496 56.151 L 8.496 56.151 Q 3.125 48.836 3.125 37.764 L 3.125 37.764 L 3.125 37.764 Q 3.125 20.76 17.383 10.38 L 17.383 10.38 L 17.383 10.38 Q 31.641 0 48.828 0 L 48.828 0 L 48.828 0 Q 68.164 0 81.152 9.194 L 81.152 9.194 L 81.152 9.194 Q 94.141 18.388 94.141 36.775 L 94.141 36.775 L 70.703 36.775 L 70.703 36.775 Q 70.703 27.285 64.453 22.639 L 64.453 22.639 L 64.453 22.639 Q 58.203 17.992 48.633 17.992 L 48.633 17.992 L 48.633 17.992 Q 39.453 17.992 32.52 22.639 L 32.52 22.639 L 32.52 22.639 Q 25.586 27.285 25.586 35.984 L 25.586 35.984 L 25.586 35.984 Q 25.586 42.509 30.957 46.76 L 30.957 46.76 L 30.957 46.76 Q 36.328 51.011 44.336 52.889 L 44.336 52.889 L 44.336 52.889 Q 52.344 54.767 61.816 57.634 L 61.816 57.634 L 61.816 57.634 Q 71.289 60.501 79.297 63.862 L 79.297 63.862 L 79.297 63.862 Q 87.305 67.224 92.676 74.737 L 92.676 74.737 L 92.676 74.737 Q 98.047 82.25 98.047 93.124 Z  M 184.375 84.623 L 184.375 84.623 L 184.375 84.623 Q 184.375 71.969 178.809 62.676 L 178.809 62.676 L 178.809 62.676 Q 173.242 53.383 162.109 53.383 L 162.109 53.383 L 162.109 53.383 Q 150.977 53.383 145.508 63.17 L 145.508 63.17 L 145.508 63.17 Q 140.039 72.957 140.039 85.216 L 140.039 85.216 L 140.039 85.216 Q 140.039 118.234 161.523 118.234 L 161.523 118.234 L 161.523 118.234 Q 173.242 118.234 178.809 108.052 L 178.809 108.052 L 178.809 108.052 Q 184.375 97.87 184.375 84.623 Z  M 205.664 84.623 L 205.664 84.623 L 205.664 84.623 Q 205.664 106.569 195.41 119.322 L 195.41 119.322 L 195.41 119.322 Q 185.156 132.075 166.406 132.075 L 166.406 132.075 L 166.406 132.075 Q 158.008 132.075 152.246 129.504 L 152.246 129.504 L 152.246 129.504 Q 146.484 126.934 140.234 121.2 L 140.234 121.2 L 140.234 164.5 L 119.336 164.5 L 119.336 41.52 L 140.234 41.52 L 140.234 53.383 L 140.234 53.383 Q 152.148 39.148 165.43 39.148 L 165.43 39.148 L 165.43 39.148 Q 184.961 39.148 195.313 51.901 L 195.313 51.901 L 195.313 51.901 Q 205.664 64.653 205.664 84.623 Z  M 291.406 2.373 L 291.406 23.133 L 267.578 23.133 L 267.578 2.373 L 291.406 2.373 Z " fill="rgb(219,34,42)"/><path d=" M 336.555 52.173 L 359.023 115.506 L 381.289 51.644 L 403.555 51.644 L 369.961 139.627 L 347.305 139.627 L 320.112 68.819 L 336.555 52.173 L 336.555 52.173 Z  M 438.125 51.644 L 438.125 139.627 L 417.227 139.627 L 417.227 51.644 L 438.125 51.644 Z  M 439.492 12.496 L 439.492 33.256 L 415.664 33.256 L 415.664 12.496 L 439.492 12.496 Z  M 522.5 96.13 L 522.5 96.13 L 522.5 96.13 Q 522.5 80.51 516.738 71.613 L 516.738 71.613 L 516.738 71.613 Q 510.977 62.716 500.625 62.716 L 500.625 62.716 L 500.625 62.716 Q 489.297 62.716 483.926 73.096 L 483.926 73.096 L 483.926 73.096 Q 478.555 83.476 478.555 96.327 L 478.555 96.327 L 478.555 96.327 Q 478.555 108.784 484.414 118.076 L 484.414 118.076 L 484.414 118.076 Q 490.273 127.369 500.82 127.369 L 500.82 127.369 L 500.82 127.369 Q 511.563 127.369 517.031 117.483 L 517.031 117.483 L 517.031 117.483 Q 522.5 107.597 522.5 96.13 Z  M 543.203 12.496 L 543.203 139.627 L 522.5 139.627 L 522.5 128.16 L 522.5 128.16 Q 511.367 142 498.086 142 L 498.086 142 L 498.086 142 Q 480.117 142 468.984 129.049 L 468.984 129.049 L 468.984 129.049 Q 457.852 116.099 457.852 97.118 L 457.852 97.118 L 457.852 97.118 Q 457.852 75.963 467.617 62.617 L 467.617 62.617 L 467.617 62.617 Q 477.383 49.271 495.352 49.271 L 495.352 49.271 L 495.352 49.271 Q 512.734 49.271 522.5 60.738 L 522.5 60.738 L 522.5 12.496 L 543.203 12.496 Z " fill="rgb(255,255,255)"/><path d=" M 326.555 42.05 L 326.367 41.52 L 303.516 41.52 L 310.112 58.696 L 326.555 42.05 L 326.555 42.05 Z " fill="rgb(255,255,255)"/></g></svg>